<?xml version="1.0" standalone="no"?><!DOCTYPE svg PUBLIC "-//W3C//DTD SVG 1.1//EN" "http://www.w3.org/Graphics/SVG/1.1/DTD/svg11.dtd"><svg t="1636083162787" class="icon" viewBox="0 0 1024 1024" version="1.1" xmlns="http://www.w3.org/2000/svg" p-id="34894" xmlns:xlink="http://www.w3.org/1999/xlink" width="200" height="200"><defs><style type="text/css"></style></defs><path d="M693.0432 512l256.9216-256.9216c49.7664-50.176 49.4592-131.2768-0.8192-181.0432-49.8688-49.4592-130.3552-49.4592-180.224 0L512 330.9568 255.0784 74.0352c-50.3808-49.5616-131.4816-48.8448-181.0432 1.536-48.9472 49.7664-48.9472 129.6384 0 179.4048l256.9216 257.024L74.0352 768.9216c-49.5616 50.3808-48.8448 131.4816 1.536 181.0432 49.7664 48.9472 129.6384 48.9472 179.4048 0l257.024-256.9216 256.9216 256.9216c49.7664 50.176 130.7648 50.5856 181.0432 0.8192s50.5856-130.7648 0.8192-181.0432l-0.8192-0.8192L693.0432 512z" fill="#F0EEE2" p-id="34895"></path><path d="M859.4432 36.5568c-33.9968-0.1024-66.56 13.4144-90.5216 37.4784l-100.5568 100.5568 181.0432 181.0432 100.5568-100.5568c49.9712-49.9712 49.9712-131.072 0-181.0432-24.064-23.9616-56.6272-37.4784-90.5216-37.4784zM76.4928 766.464c-49.9712 49.9712-49.9712 131.072 0 181.0432s131.072 49.9712 181.0432 0l100.5568-100.5568-181.0432-181.0432-100.5568 100.5568z" fill="#BBAA9C" p-id="34896"></path><path d="M237.6704 292.5568c0-10.1376-8.192-18.3296-18.3296-18.3296H109.6704c-10.1376 0.2048-18.1248 8.6016-17.8176 18.7392 0.2048 9.728 8.0896 17.6128 17.8176 17.8176h109.6704c10.1376 0.1024 18.3296-8.0896 18.3296-18.2272z m603.4432 566.8864c-10.1376 0-18.3296 8.192-18.3296 18.3296 0 10.1376 8.192 18.3296 18.3296 18.3296 10.1376 0 18.3296-8.192 18.3296-18.3296 0-10.1376-8.192-18.3296-18.3296-18.3296zM731.4432 676.5568h-54.8864c-10.1376 0.2048-18.1248 8.6016-17.8176 18.7392 0.2048 9.728 8.0896 17.6128 17.8176 17.8176h54.8864c10.1376-0.2048 18.1248-8.6016 17.8176-18.7392-0.2048-9.728-8.0896-17.6128-17.8176-17.8176z m-384-54.8864h-128c-10.1376-0.2048-18.432 7.7824-18.7392 17.8176-0.2048 10.1376 7.7824 18.432 17.8176 18.7392h128.8192c10.1376-0.2048 18.1248-8.6016 17.8176-18.7392-0.1024-9.728-7.9872-17.5104-17.7152-17.8176z m384-91.3408H621.6704c-10.1376-0.2048-18.432 7.7824-18.7392 17.8176-0.2048 10.1376 7.7824 18.432 17.8176 18.7392H731.2384c10.1376-0.2048 18.1248-8.6016 17.8176-18.7392 0-9.8304-7.8848-17.6128-17.6128-17.8176z m201.1136-310.8864h-91.4432c-10.1376 0.2048-18.1248 8.6016-17.8176 18.7392 0.2048 9.728 8.0896 17.6128 17.8176 17.8176h91.4432c10.1376 0.2048 18.432-7.7824 18.7392-17.8176s-7.7824-18.432-17.8176-18.7392h-0.9216z m-749.6704-36.5568h18.3296c10.1376 0.2048 18.432-7.7824 18.7392-17.8176 0.2048-10.1376-7.7824-18.432-17.8176-18.7392h-19.1488c-10.1376 0.2048-18.1248 8.6016-17.8176 18.7392 0.1024 9.728 7.8848 17.5104 17.7152 17.8176z m274.2272 256h-54.8864c-10.1376 0.2048-18.1248 8.6016-17.8176 18.7392 0.2048 9.728 8.0896 17.6128 17.8176 17.8176h54.8864c10.1376-0.2048 18.1248-8.6016 17.8176-18.7392-0.2048-9.728-7.9872-17.6128-17.8176-17.8176zM237.6704 841.1136h-36.5568c-10.1376 0.2048-18.1248 8.6016-17.8176 18.7392 0.2048 9.728 8.0896 17.6128 17.8176 17.8176h36.5568c10.1376-0.2048 18.1248-8.6016 17.8176-18.7392-0.2048-9.728-7.9872-17.5104-17.8176-17.8176z m384-457.1136h36.5568c10.1376-0.2048 18.1248-8.6016 17.8176-18.7392-0.2048-9.728-8.0896-17.6128-17.8176-17.8176h-36.5568c-10.1376-0.2048-18.432 7.7824-18.7392 17.8176s7.7824 18.432 17.8176 18.7392h0.9216z" fill="#D8D5BA" p-id="34897"></path><path d="M975.7696 743.0144L744.7552 512l231.0144-231.0144c64.3072-64.3072 64.2048-168.448 0-232.7552s-168.448-64.2048-232.7552 0L512 279.2448 280.9856 48.2304c-64.3072-64.3072-168.448-64.3072-232.7552 0s-64.3072 168.448 0 232.7552L279.2448 512 48.2304 743.0144c-64.3072 64.3072-64.3072 168.448 0 232.7552s168.448 64.3072 232.7552 0L512 744.7552l231.0144 231.0144c64.3072 64.3072 168.448 64.3072 232.7552 0s64.3072-168.448 0-232.7552z m-181.0432-643.072c35.328-36.0448 93.2864-36.5568 129.3312-1.2288s36.5568 93.2864 1.2288 129.3312l-1.1264 1.1264-87.6544 87.6544-129.3312-129.2288 87.552-87.6544zM229.2736 924.0576c-35.328 36.0448-93.2864 36.5568-129.3312 1.2288s-36.5568-93.2864-1.2288-129.3312l1.1264-1.1264 87.6544-87.6544 129.3312 129.3312-87.552 87.552z m630.1696 26.8288c-24.2688 0-47.5136-9.6256-64.7168-26.8288L512 641.3312 342.7328 810.5984 213.4016 681.2672 382.6688 512 99.9424 229.2736c-36.0448-35.4304-36.5568-93.2864-1.1264-129.3312s93.2864-36.5568 129.3312-1.1264l1.1264 1.1264L512 382.6688l169.2672-169.2672 129.3312 129.3312L641.3312 512l282.7264 282.8288c35.7376 35.7376 35.7376 93.5936 0 129.3312-17.1008 17.1008-40.3456 26.7264-64.6144 26.7264z" fill="#5F4E56" p-id="34898"></path></svg>