<?xml version="1.0" standalone="no"?><!DOCTYPE svg PUBLIC "-//W3C//DTD SVG 1.1//EN" "http://www.w3.org/Graphics/SVG/1.1/DTD/svg11.dtd"><svg t="1638496964459" class="icon" viewBox="0 0 1024 1024" version="1.1" xmlns="http://www.w3.org/2000/svg" p-id="6999" xmlns:xlink="http://www.w3.org/1999/xlink" width="200" height="200"><defs><style type="text/css"></style></defs><path d="M923.136 969.557333H193.024v-909.653333h521.386667l208.725333 207.701333z" fill="#7CCDFF" p-id="7000"></path><path d="M912.896 253.952l2.56 671.914667c0 15.530667-12.458667 27.989333-27.989333 27.989333H237.909333c-15.530667 0-27.989333-12.458667-27.989333-27.989333V96.938667c0-15.530667 12.458667-27.989333 27.989333-27.989334l493.397334-1.024-38.912-39.936H239.274667c-36.352 0-65.706667 29.354667-65.706667 65.706667v835.584c0 36.352 29.354667 65.706667 65.706667 65.706667h646.826666c36.352 0 65.706667-29.354667 65.706667-65.706667V293.888l-38.912-39.936z" fill="#4191FB" p-id="7001"></path><path d="M692.394667 222.72c0 39.424 31.914667 71.338667 71.338666 71.338667h188.245334L692.394667 27.989333v194.730667z" fill="#C7E2FF" p-id="7002"></path><path d="M557.568 482.304H158.72c-50.346667 0-91.136-40.789333-91.136-91.136v-60.245333c0-50.346667 40.789333-91.136 91.136-91.136h398.848c50.346667 0 91.136 40.789333 91.136 91.136v60.245333c0 50.346667-40.789333 91.136-91.136 91.136z" fill="#4191FB" p-id="7003"></path><path d="M173.738667 287.573333h55.808v155.818667h-55.808v-155.818667zM269.824 287.573333h51.882667l67.754666 86.186667v-86.186667H442.026667v155.818667h-52.394667l-67.413333-85.504v85.504h-52.394667v-155.818667zM481.28 287.573333h55.808v155.818667H481.28v-155.818667z" fill="#FFFFFF" p-id="7004"></path><path d="M666.453333 857.770667c0-49.322667 0.341333-98.645333-0.170666-147.797334-0.170667-11.434667 3.072-17.92 13.824-23.722666 42.666667-22.698667 44.373333-84.309333 2.56-107.690667-14.165333-7.850667-17.578667-16.554667-16.042667-30.378667 0.341333-2.730667 0-5.461333 0-8.362666-0.170667-17.237333-0.853333-17.408-17.92-18.090667-11.776-0.512-17.408 3.242667-16.213333 15.530667 0.512 4.949333-0.341333 10.24 0.170666 15.189333 1.194667 11.093333-2.218667 17.578667-12.970666 23.893333-44.373333 25.770667-44.714667 86.869333-0.853334 110.592 11.434667 6.144 13.994667 13.141333 13.824 24.746667-0.341333 85.845333-0.170667 171.861333-0.170666 257.706667h33.962666v-111.616z m-46.592-226.133334c0.341333-16.896 13.312-28.842667 30.890667-28.330666 16.384 0.512 28.672 13.482667 28.16 29.525333-0.512 15.701333-13.824 27.989333-30.208 27.648-15.872 0-29.184-13.312-28.842667-28.842667zM524.970667 966.997333c43.178667-24.746667 43.178667-85.162667-0.170667-110.08-10.410667-5.973333-13.482667-12.458667-13.482667-23.893333 0.341333-98.133333 0-196.437333 0.512-294.570667 0-13.994667-5.632-16.725333-18.090666-16.725333-12.8-0.170667-16.725333 4.266667-16.554667 16.896 0.512 49.834667 0.170667 99.498667 0.170667 149.333333v149.333334c0 7.68-0.682667 13.482667-9.216 17.749333-45.568 23.04-51.712 78.848-9.728 108.032 3.072 2.218667 5.632 4.266667 7.850666 6.485333h54.613334c1.194667-0.853333 2.56-1.706667 4.096-2.56z m-60.416-54.272c-0.512-16.042667 11.946667-29.013333 28.16-29.525333 16.896-0.512 30.72 12.288 30.72 28.501333 0 15.701333-13.141333 28.501333-29.184 28.672-16.725333 0.341333-29.184-11.264-29.696-27.648zM821.418667 893.269333c-0.170667-8.874667 2.56-13.824 10.922666-18.090666 22.869333-11.946667 36.352-31.573333 35.498667-57.856-0.853333-25.429333-13.312-44.885333-36.522667-55.978667-8.362667-3.925333-10.069333-9.216-9.898666-17.408 0.170667-34.133333 0.170667-68.266667 0-102.229333 0-34.986667 0-69.973333-0.170667-104.96 0-5.12 1.536-11.264-5.802667-13.994667-17.408-6.485333-28.501333 0.853333-28.501333 19.114667v201.728c0 8.192-0.682667 14.506667-10.069333 18.773333-23.210667 10.410667-34.645333 29.525333-35.328 54.784-0.512 25.941333 11.093333 45.397333 33.962666 57.173333 8.874667 4.608 11.434667 10.24 11.434667 19.626667-0.170667 25.258667 0 50.517333-0.170667 75.776h34.304c0.682667-25.6 0.682667-51.029333 0.341334-76.458667z m-44.544-76.117333c0.341333-16.213333 13.312-28.330667 29.525333-27.818667 15.872 0.512 27.989333 13.482667 27.648 30.037334-0.170667 16.213333-13.312 29.354667-29.013333 28.842666-16.384-0.512-28.501333-13.824-28.16-31.061333z" fill="#4191FB" p-id="7005"></path></svg>