<svg width="500" height="404" xmlns="http://www.w3.org/2000/svg" style="vector-effect: non-scaling-stroke;" stroke="null">

 <g stroke="null">
  <title >background</title>
  <rect stroke="null" fill="none" id="canvas_background" height="406" width="502" y="-1" x="-1"/>
 </g>
 <g stroke="null">
  <title >Layer 1</title>
  <ellipse ry="56" rx="50" id="svg_7" cy="245.85" cx="81.5" stroke-width="null" stroke="null" fill="none"/>
  <path d="m125.5,283.850006c0,-1 0.994667,-5.102112 2,-10c1.531265,-7.460236 6.48584,-18.893997 8,-27c1.480377,-7.925186 2.663681,-14.283676 5,-22c1.943924,-6.420364 5.095444,-16.977341 6,-21c1.118668,-4.974792 1.432877,-11.802429 4,-18c1.210144,-2.92157 2.972519,-6.647491 4,-11c0.689255,-2.919754 1.881332,-9.025208 3,-14c0.904556,-4.022659 2,-5 3,-7l1,-2l0,-1l1,0" id="svg_10" fill-opacity="null" stroke-opacity="null" stroke-width="null" stroke="null" fill="none"/>
  <path stroke="null" id="svg_12" d="m152.5,337.1289l53.250004,-255.128896l54.000005,99.47427l48.000004,-90.431155c0.75,1.921662 48.750004,241.564222 48.750004,241.564222c0,0 -30.000003,0 -30.750003,-1.921662c0.75,1.921662 -21.750002,-129.203512 -21.750002,-129.203512c0,0 -43.500004,74.605703 -44.250004,72.684041c0.75,1.921662 -45.750004,-77.205598 -45.750004,-77.205598c0,0 -31.500003,146.950627 -32.250003,145.028965" opacity="0.5" stroke-opacity="null" stroke-width="null" fill="#2D6862"/>
  <ellipse stroke="null" ry="114.00001" rx="81.500004" id="svg_13" cy="226.849993" cx="81.999998" stroke-opacity="null" stroke-width="null" fill="#7DD8B5"/>
  <ellipse id="svg_14" cy="310.85" cx="240.5" stroke-opacity="null" stroke-width="null" stroke="null" fill="#84D3DB"/>
  <ellipse stroke="null" ry="85.500001" rx="55.000002" id="svg_15" cy="225.349988" cx="81.500004" stroke-opacity="null" stroke-width="null" fill="#ffffff"/>
  <path stroke="null" id="svg_18" d="m376.090607,272.327887l-25.090609,10.015516c0.760321,1.38425 11.404822,38.840632 11.404822,38.840632c0,0 27.371574,19.542444 26.611252,18.158194c0.760321,1.38425 28.131895,4.641336 27.371574,3.257068c0.760321,1.384268 25.090609,1.384268 24.330288,0c0.760321,1.384268 22.049323,-3.501361 21.289002,-4.885611c0.760321,1.38425 12.925465,-24.672349 12.165144,-26.056598c0.760321,1.38425 3.801607,-40.957744 3.041286,-42.341993c0.760321,1.38425 -20.52868,-24.672349 -21.289002,-26.056617c0.760321,1.384268 -31.173181,-21.415262 -31.933503,-22.799531c0.760321,1.384268 -22.049323,-46.509699 -27.371574,-29.313685c11.404822,12.532438 11.404822,-31.186503 10.644501,-32.570753c-2.280964,3.242278 26.611252,-14.901127 25.850931,-16.285376c0.760321,1.38425 29.652538,16.041101 28.892217,14.656833c0.760321,1.384268 12.925465,24.183799 12.925465,24.183799c0,0 22.809645,-1.628543 22.049323,-3.012793c0.760321,1.38425 -6.842893,-29.557978 -7.603215,-30.942228c0.760321,1.38425 -17.487394,-16.52967 -18.247716,-17.91392c0.760321,1.38425 -11.404822,-0.244275 -12.165144,-1.628543c-3.801607,-7.905873 -20.52868,-6.758429 -21.289002,-8.142679c2.280964,-7.905892 -17.487394,1.38425 -18.247716,0c0.760321,-6.047863 -22.049323,12.784015 -22.809645,11.399765c0.760321,-4.189835 -19.008037,11.155472 -19.768359,9.771222c0.760321,1.38425 -5.32225,32.326478 -6.082572,30.942228c-3.801607,1.38425 6.842893,37.212089 6.082572,35.82782c-2.280964,5.100325 14.446108,17.669645 13.685787,16.285395c0.760321,1.38425 25.090609,27.440867 24.330288,26.056598c0.760321,1.384268 17.487394,27.440867 16.727073,26.056617c0.760321,1.38425 19.008037,24.18378 19.008037,24.18378c0,0 -13.685787,16.285376 -14.446108,14.901127c0.760321,1.38425 -28.131895,-5.129886 -28.892217,-6.514154c0.760321,1.384268 -17.487394,-11.64404 -18.247716,-13.028308" opacity="0.5" stroke-opacity="null" stroke-width="null" fill="#2D6862"/>
 </g>
</svg>
